<svg width="21" height="20" viewBox="0 0 21 20" fill="none" xmlns="http://www.w3.org/2000/svg">
<path d="M17.2147 3.98882L16.5129 3.28709C16.4865 3.26061 16.4534 3.24902 16.4186 3.24902C16.3838 3.24902 16.3507 3.26226 16.3243 3.28709L15.0648 4.54656C14.5173 4.17559 13.8709 3.97781 13.2095 3.97889C12.3621 3.97889 11.5148 4.30162 10.8677 4.94873L9.1812 6.63519C9.15656 6.66008 9.14273 6.69368 9.14273 6.7287C9.14273 6.76372 9.15656 6.79733 9.1812 6.82221L13.6779 11.3189C13.7044 11.3454 13.7375 11.357 13.7722 11.357C13.8053 11.357 13.8401 11.3437 13.8666 11.3189L15.553 9.63244C16.6933 8.49047 16.8274 6.72457 15.9552 5.43696L17.2147 4.17749C17.266 4.12453 17.266 4.04012 17.2147 3.98882ZM11.6075 10.5741C11.5826 10.5495 11.549 10.5357 11.5139 10.5357C11.4789 10.5357 11.4453 10.5495 11.4204 10.5741L10.3182 11.6764L8.82371 10.1819L9.92761 9.078C9.97892 9.0267 9.97892 8.94229 9.92761 8.89099L9.32518 8.28856C9.3003 8.26392 9.2667 8.2501 9.23168 8.2501C9.19666 8.2501 9.16305 8.26392 9.13817 8.28856L8.03427 9.39246L7.32261 8.6808C7.31025 8.66843 7.29553 8.65869 7.27932 8.65215C7.26311 8.64561 7.24575 8.64241 7.22827 8.64273C7.19517 8.64273 7.16042 8.65597 7.13394 8.6808L5.44913 10.3673C4.30882 11.5076 4.17476 13.2751 5.04696 14.5627L3.78749 15.8222C3.76285 15.8471 3.74902 15.8807 3.74902 15.9157C3.74902 15.9507 3.76285 15.9843 3.78749 16.0092L4.48921 16.711C4.5157 16.7374 4.5488 16.749 4.58355 16.749C4.61831 16.749 4.65141 16.7358 4.67789 16.711L5.93736 15.4515C6.4951 15.8305 7.14387 16.0192 7.79263 16.0192C8.64001 16.0192 9.48738 15.6964 10.1345 15.0493L11.821 13.3629C11.8723 13.3115 11.8723 13.2271 11.821 13.1758L11.1093 12.4642L12.2132 11.3603C12.2645 11.309 12.2645 11.2246 12.2132 11.1733L11.6075 10.5741Z" fill="white"/>
</svg>
